<svg xmlns="http://www.w3.org/2000/svg" viewBox="0 0 512 512" role="img" aria-label="Grocery basket icon">
  <defs>
    <linearGradient id="basketGradient" x1="0%" y1="0%" x2="0%" y2="100%">
      <stop offset="0%" stop-color="#22c55e" />
      <stop offset="100%" stop-color="#15803d" />
    </linearGradient>
  </defs>
  <rect width="512" height="512" rx="96" fill="#f8fafc" />
  <path d="M120 200h272c10.5 0 19.4 7.7 20.9 18l20 140c1.9 13.8-8.9 26-22.9 26H102c-14 0-24.8-12.2-22.9-26l20-140c1.5-10.3 10.4-18 20.9-18Z" fill="url(#basketGradient)" stroke="#14532d" stroke-width="16" />
  <path d="M196 200 248 104c4.3-8 15.7-8 20 0l52 96" fill="none" stroke="#14532d" stroke-width="16" stroke-linecap="round" />
  <circle cx="196" cy="280" r="18" fill="#fbbf24" stroke="#92400e" stroke-width="8" />
  <circle cx="256" cy="320" r="22" fill="#f97316" stroke="#9a3412" stroke-width="8" />
  <circle cx="316" cy="276" r="18" fill="#a855f7" stroke="#6b21a8" stroke-width="8" />
  <path d="M172 342h168" stroke="#f8fafc" stroke-width="14" stroke-linecap="round" />
</svg>
